<mxfile host="app.diagrams.net" modified="2024-07-08T17:13:00.059Z" agent="Mozilla/5.0 (Windows NT 10.0; Win64; x64) AppleWebKit/537.36 (KHTML, like Gecko) Chrome/126.0.0.0 Safari/537.36" etag="RsXONyCH93x8OT19HyzG" version="24.6.4" type="device">
  <diagram name="Página-1" id="9GcyyP6ohTR9_kIR6azR">
    <mxGraphModel dx="1434" dy="772" grid="1" gridSize="10" guides="1" tooltips="1" connect="1" arrows="1" fold="1" page="1" pageScale="1" pageWidth="827" pageHeight="1169" math="0" shadow="0">
      <root>
        <mxCell id="0" />
        <mxCell id="1" parent="0" />
        <mxCell id="lou3Js6F1ql6NDHkVVvx-3" style="edgeStyle=orthogonalEdgeStyle;rounded=0;orthogonalLoop=1;jettySize=auto;html=1;exitX=1;exitY=0.5;exitDx=0;exitDy=0;entryX=0;entryY=0.5;entryDx=0;entryDy=0;" edge="1" parent="1" source="lou3Js6F1ql6NDHkVVvx-1" target="lou3Js6F1ql6NDHkVVvx-2">
          <mxGeometry relative="1" as="geometry" />
        </mxCell>
        <mxCell id="lou3Js6F1ql6NDHkVVvx-1" value="Usuario/Empresa" style="rounded=1;whiteSpace=wrap;html=1;" vertex="1" parent="1">
          <mxGeometry x="100" y="60" width="120" height="60" as="geometry" />
        </mxCell>
        <mxCell id="lou3Js6F1ql6NDHkVVvx-7" style="edgeStyle=orthogonalEdgeStyle;rounded=0;orthogonalLoop=1;jettySize=auto;html=1;exitX=0.5;exitY=1;exitDx=0;exitDy=0;entryX=0.5;entryY=0;entryDx=0;entryDy=0;" edge="1" parent="1" source="lou3Js6F1ql6NDHkVVvx-2">
          <mxGeometry relative="1" as="geometry">
            <mxPoint x="340" y="160" as="targetPoint" />
          </mxGeometry>
        </mxCell>
        <mxCell id="lou3Js6F1ql6NDHkVVvx-2" value="Acesso ao sistema&lt;div&gt;&lt;br&gt;&lt;/div&gt;" style="rounded=1;whiteSpace=wrap;html=1;" vertex="1" parent="1">
          <mxGeometry x="280" y="60" width="120" height="60" as="geometry" />
        </mxCell>
        <mxCell id="lou3Js6F1ql6NDHkVVvx-11" style="edgeStyle=orthogonalEdgeStyle;rounded=0;orthogonalLoop=1;jettySize=auto;html=1;exitX=1;exitY=0.5;exitDx=0;exitDy=0;entryX=0;entryY=0.5;entryDx=0;entryDy=0;" edge="1" parent="1" source="lou3Js6F1ql6NDHkVVvx-4" target="lou3Js6F1ql6NDHkVVvx-10">
          <mxGeometry relative="1" as="geometry" />
        </mxCell>
        <mxCell id="lou3Js6F1ql6NDHkVVvx-12" style="edgeStyle=orthogonalEdgeStyle;rounded=0;orthogonalLoop=1;jettySize=auto;html=1;exitX=0;exitY=0.5;exitDx=0;exitDy=0;entryX=1;entryY=0.5;entryDx=0;entryDy=0;" edge="1" parent="1" source="lou3Js6F1ql6NDHkVVvx-4" target="lou3Js6F1ql6NDHkVVvx-5">
          <mxGeometry relative="1" as="geometry" />
        </mxCell>
        <mxCell id="lou3Js6F1ql6NDHkVVvx-4" value="Email&amp;nbsp; existe&lt;div&gt;Senha valida&lt;/div&gt;" style="rhombus;whiteSpace=wrap;html=1;" vertex="1" parent="1">
          <mxGeometry x="285" y="160" width="110" height="110" as="geometry" />
        </mxCell>
        <mxCell id="lou3Js6F1ql6NDHkVVvx-15" style="edgeStyle=orthogonalEdgeStyle;rounded=0;orthogonalLoop=1;jettySize=auto;html=1;exitX=0.5;exitY=1;exitDx=0;exitDy=0;entryX=0.5;entryY=0;entryDx=0;entryDy=0;" edge="1" parent="1" source="lou3Js6F1ql6NDHkVVvx-5" target="lou3Js6F1ql6NDHkVVvx-13">
          <mxGeometry relative="1" as="geometry" />
        </mxCell>
        <mxCell id="lou3Js6F1ql6NDHkVVvx-5" value="Token Gerado" style="rounded=0;whiteSpace=wrap;html=1;" vertex="1" parent="1">
          <mxGeometry x="130" y="195" width="100" height="40" as="geometry" />
        </mxCell>
        <mxCell id="lou3Js6F1ql6NDHkVVvx-17" style="edgeStyle=orthogonalEdgeStyle;rounded=0;orthogonalLoop=1;jettySize=auto;html=1;exitX=0.5;exitY=1;exitDx=0;exitDy=0;entryX=0.5;entryY=0;entryDx=0;entryDy=0;" edge="1" parent="1" source="lou3Js6F1ql6NDHkVVvx-10" target="lou3Js6F1ql6NDHkVVvx-14">
          <mxGeometry relative="1" as="geometry" />
        </mxCell>
        <mxCell id="lou3Js6F1ql6NDHkVVvx-10" value="Token não Gerado" style="rounded=0;whiteSpace=wrap;html=1;" vertex="1" parent="1">
          <mxGeometry x="450" y="195" width="100" height="40" as="geometry" />
        </mxCell>
        <mxCell id="lou3Js6F1ql6NDHkVVvx-13" value="Acesso liberado" style="rounded=0;whiteSpace=wrap;html=1;" vertex="1" parent="1">
          <mxGeometry x="130" y="310" width="100" height="40" as="geometry" />
        </mxCell>
        <mxCell id="lou3Js6F1ql6NDHkVVvx-50" style="edgeStyle=orthogonalEdgeStyle;rounded=0;orthogonalLoop=1;jettySize=auto;html=1;entryX=0.5;entryY=0;entryDx=0;entryDy=0;" edge="1" parent="1" source="lou3Js6F1ql6NDHkVVvx-14" target="lou3Js6F1ql6NDHkVVvx-18">
          <mxGeometry relative="1" as="geometry" />
        </mxCell>
        <mxCell id="lou3Js6F1ql6NDHkVVvx-14" value="Acesso negado" style="rounded=0;whiteSpace=wrap;html=1;" vertex="1" parent="1">
          <mxGeometry x="450" y="310" width="100" height="40" as="geometry" />
        </mxCell>
        <mxCell id="lou3Js6F1ql6NDHkVVvx-18" value="Redirecionar para o cadastro" style="rounded=0;whiteSpace=wrap;html=1;" vertex="1" parent="1">
          <mxGeometry x="450" y="420" width="100" height="40" as="geometry" />
        </mxCell>
        <mxCell id="lou3Js6F1ql6NDHkVVvx-49" style="edgeStyle=orthogonalEdgeStyle;rounded=0;orthogonalLoop=1;jettySize=auto;html=1;" edge="1" parent="1" source="lou3Js6F1ql6NDHkVVvx-19" target="lou3Js6F1ql6NDHkVVvx-47">
          <mxGeometry relative="1" as="geometry" />
        </mxCell>
        <mxCell id="lou3Js6F1ql6NDHkVVvx-19" value="Database" style="shape=cylinder3;whiteSpace=wrap;html=1;boundedLbl=1;backgroundOutline=1;size=15;" vertex="1" parent="1">
          <mxGeometry x="150" y="380" width="60" height="80" as="geometry" />
        </mxCell>
        <mxCell id="lou3Js6F1ql6NDHkVVvx-20" value="Usuarios" style="shape=table;startSize=30;container=1;collapsible=1;childLayout=tableLayout;fixedRows=1;rowLines=0;fontStyle=1;align=center;resizeLast=1;html=1;" vertex="1" parent="1">
          <mxGeometry x="50" y="740" width="220" height="150" as="geometry" />
        </mxCell>
        <mxCell id="lou3Js6F1ql6NDHkVVvx-21" value="" style="shape=tableRow;horizontal=0;startSize=0;swimlaneHead=0;swimlaneBody=0;fillColor=none;collapsible=0;dropTarget=0;points=[[0,0.5],[1,0.5]];portConstraint=eastwest;top=0;left=0;right=0;bottom=1;" vertex="1" parent="lou3Js6F1ql6NDHkVVvx-20">
          <mxGeometry y="30" width="220" height="30" as="geometry" />
        </mxCell>
        <mxCell id="lou3Js6F1ql6NDHkVVvx-22" value="PK" style="shape=partialRectangle;connectable=0;fillColor=none;top=0;left=0;bottom=0;right=0;fontStyle=1;overflow=hidden;whiteSpace=wrap;html=1;" vertex="1" parent="lou3Js6F1ql6NDHkVVvx-21">
          <mxGeometry width="50" height="30" as="geometry">
            <mxRectangle width="50" height="30" as="alternateBounds" />
          </mxGeometry>
        </mxCell>
        <mxCell id="lou3Js6F1ql6NDHkVVvx-23" value="Id" style="shape=partialRectangle;connectable=0;fillColor=none;top=0;left=0;bottom=0;right=0;align=left;spacingLeft=6;fontStyle=5;overflow=hidden;whiteSpace=wrap;html=1;" vertex="1" parent="lou3Js6F1ql6NDHkVVvx-21">
          <mxGeometry x="50" width="170" height="30" as="geometry">
            <mxRectangle width="170" height="30" as="alternateBounds" />
          </mxGeometry>
        </mxCell>
        <mxCell id="lou3Js6F1ql6NDHkVVvx-24" value="" style="shape=tableRow;horizontal=0;startSize=0;swimlaneHead=0;swimlaneBody=0;fillColor=none;collapsible=0;dropTarget=0;points=[[0,0.5],[1,0.5]];portConstraint=eastwest;top=0;left=0;right=0;bottom=0;" vertex="1" parent="lou3Js6F1ql6NDHkVVvx-20">
          <mxGeometry y="60" width="220" height="30" as="geometry" />
        </mxCell>
        <mxCell id="lou3Js6F1ql6NDHkVVvx-25" value="varchar" style="shape=partialRectangle;connectable=0;fillColor=none;top=0;left=0;bottom=0;right=0;editable=1;overflow=hidden;whiteSpace=wrap;html=1;" vertex="1" parent="lou3Js6F1ql6NDHkVVvx-24">
          <mxGeometry width="50" height="30" as="geometry">
            <mxRectangle width="50" height="30" as="alternateBounds" />
          </mxGeometry>
        </mxCell>
        <mxCell id="lou3Js6F1ql6NDHkVVvx-26" value="username" style="shape=partialRectangle;connectable=0;fillColor=none;top=0;left=0;bottom=0;right=0;align=left;spacingLeft=6;overflow=hidden;whiteSpace=wrap;html=1;" vertex="1" parent="lou3Js6F1ql6NDHkVVvx-24">
          <mxGeometry x="50" width="170" height="30" as="geometry">
            <mxRectangle width="170" height="30" as="alternateBounds" />
          </mxGeometry>
        </mxCell>
        <mxCell id="lou3Js6F1ql6NDHkVVvx-27" value="" style="shape=tableRow;horizontal=0;startSize=0;swimlaneHead=0;swimlaneBody=0;fillColor=none;collapsible=0;dropTarget=0;points=[[0,0.5],[1,0.5]];portConstraint=eastwest;top=0;left=0;right=0;bottom=0;" vertex="1" parent="lou3Js6F1ql6NDHkVVvx-20">
          <mxGeometry y="90" width="220" height="30" as="geometry" />
        </mxCell>
        <mxCell id="lou3Js6F1ql6NDHkVVvx-28" value="varchar" style="shape=partialRectangle;connectable=0;fillColor=none;top=0;left=0;bottom=0;right=0;editable=1;overflow=hidden;whiteSpace=wrap;html=1;" vertex="1" parent="lou3Js6F1ql6NDHkVVvx-27">
          <mxGeometry width="50" height="30" as="geometry">
            <mxRectangle width="50" height="30" as="alternateBounds" />
          </mxGeometry>
        </mxCell>
        <mxCell id="lou3Js6F1ql6NDHkVVvx-29" value="email" style="shape=partialRectangle;connectable=0;fillColor=none;top=0;left=0;bottom=0;right=0;align=left;spacingLeft=6;overflow=hidden;whiteSpace=wrap;html=1;" vertex="1" parent="lou3Js6F1ql6NDHkVVvx-27">
          <mxGeometry x="50" width="170" height="30" as="geometry">
            <mxRectangle width="170" height="30" as="alternateBounds" />
          </mxGeometry>
        </mxCell>
        <mxCell id="lou3Js6F1ql6NDHkVVvx-30" value="" style="shape=tableRow;horizontal=0;startSize=0;swimlaneHead=0;swimlaneBody=0;fillColor=none;collapsible=0;dropTarget=0;points=[[0,0.5],[1,0.5]];portConstraint=eastwest;top=0;left=0;right=0;bottom=0;" vertex="1" parent="lou3Js6F1ql6NDHkVVvx-20">
          <mxGeometry y="120" width="220" height="30" as="geometry" />
        </mxCell>
        <mxCell id="lou3Js6F1ql6NDHkVVvx-31" value="varchar" style="shape=partialRectangle;connectable=0;fillColor=none;top=0;left=0;bottom=0;right=0;editable=1;overflow=hidden;whiteSpace=wrap;html=1;" vertex="1" parent="lou3Js6F1ql6NDHkVVvx-30">
          <mxGeometry width="50" height="30" as="geometry">
            <mxRectangle width="50" height="30" as="alternateBounds" />
          </mxGeometry>
        </mxCell>
        <mxCell id="lou3Js6F1ql6NDHkVVvx-32" value="password" style="shape=partialRectangle;connectable=0;fillColor=none;top=0;left=0;bottom=0;right=0;align=left;spacingLeft=6;overflow=hidden;whiteSpace=wrap;html=1;" vertex="1" parent="lou3Js6F1ql6NDHkVVvx-30">
          <mxGeometry x="50" width="170" height="30" as="geometry">
            <mxRectangle width="170" height="30" as="alternateBounds" />
          </mxGeometry>
        </mxCell>
        <mxCell id="lou3Js6F1ql6NDHkVVvx-33" value="Produtos" style="shape=table;startSize=30;container=1;collapsible=1;childLayout=tableLayout;fixedRows=1;rowLines=0;fontStyle=1;align=center;resizeLast=1;html=1;" vertex="1" parent="1">
          <mxGeometry x="320" y="870" width="220" height="150" as="geometry" />
        </mxCell>
        <mxCell id="lou3Js6F1ql6NDHkVVvx-34" value="" style="shape=tableRow;horizontal=0;startSize=0;swimlaneHead=0;swimlaneBody=0;fillColor=none;collapsible=0;dropTarget=0;points=[[0,0.5],[1,0.5]];portConstraint=eastwest;top=0;left=0;right=0;bottom=1;" vertex="1" parent="lou3Js6F1ql6NDHkVVvx-33">
          <mxGeometry y="30" width="220" height="30" as="geometry" />
        </mxCell>
        <mxCell id="lou3Js6F1ql6NDHkVVvx-35" value="PK" style="shape=partialRectangle;connectable=0;fillColor=none;top=0;left=0;bottom=0;right=0;fontStyle=1;overflow=hidden;whiteSpace=wrap;html=1;" vertex="1" parent="lou3Js6F1ql6NDHkVVvx-34">
          <mxGeometry width="50" height="30" as="geometry">
            <mxRectangle width="50" height="30" as="alternateBounds" />
          </mxGeometry>
        </mxCell>
        <mxCell id="lou3Js6F1ql6NDHkVVvx-36" value="Id" style="shape=partialRectangle;connectable=0;fillColor=none;top=0;left=0;bottom=0;right=0;align=left;spacingLeft=6;fontStyle=5;overflow=hidden;whiteSpace=wrap;html=1;" vertex="1" parent="lou3Js6F1ql6NDHkVVvx-34">
          <mxGeometry x="50" width="170" height="30" as="geometry">
            <mxRectangle width="170" height="30" as="alternateBounds" />
          </mxGeometry>
        </mxCell>
        <mxCell id="lou3Js6F1ql6NDHkVVvx-37" value="" style="shape=tableRow;horizontal=0;startSize=0;swimlaneHead=0;swimlaneBody=0;fillColor=none;collapsible=0;dropTarget=0;points=[[0,0.5],[1,0.5]];portConstraint=eastwest;top=0;left=0;right=0;bottom=0;" vertex="1" parent="lou3Js6F1ql6NDHkVVvx-33">
          <mxGeometry y="60" width="220" height="30" as="geometry" />
        </mxCell>
        <mxCell id="lou3Js6F1ql6NDHkVVvx-38" value="varchar" style="shape=partialRectangle;connectable=0;fillColor=none;top=0;left=0;bottom=0;right=0;editable=1;overflow=hidden;whiteSpace=wrap;html=1;" vertex="1" parent="lou3Js6F1ql6NDHkVVvx-37">
          <mxGeometry width="50" height="30" as="geometry">
            <mxRectangle width="50" height="30" as="alternateBounds" />
          </mxGeometry>
        </mxCell>
        <mxCell id="lou3Js6F1ql6NDHkVVvx-39" value="name" style="shape=partialRectangle;connectable=0;fillColor=none;top=0;left=0;bottom=0;right=0;align=left;spacingLeft=6;overflow=hidden;whiteSpace=wrap;html=1;" vertex="1" parent="lou3Js6F1ql6NDHkVVvx-37">
          <mxGeometry x="50" width="170" height="30" as="geometry">
            <mxRectangle width="170" height="30" as="alternateBounds" />
          </mxGeometry>
        </mxCell>
        <mxCell id="lou3Js6F1ql6NDHkVVvx-40" value="" style="shape=tableRow;horizontal=0;startSize=0;swimlaneHead=0;swimlaneBody=0;fillColor=none;collapsible=0;dropTarget=0;points=[[0,0.5],[1,0.5]];portConstraint=eastwest;top=0;left=0;right=0;bottom=0;" vertex="1" parent="lou3Js6F1ql6NDHkVVvx-33">
          <mxGeometry y="90" width="220" height="30" as="geometry" />
        </mxCell>
        <mxCell id="lou3Js6F1ql6NDHkVVvx-41" value="int" style="shape=partialRectangle;connectable=0;fillColor=none;top=0;left=0;bottom=0;right=0;editable=1;overflow=hidden;whiteSpace=wrap;html=1;" vertex="1" parent="lou3Js6F1ql6NDHkVVvx-40">
          <mxGeometry width="50" height="30" as="geometry">
            <mxRectangle width="50" height="30" as="alternateBounds" />
          </mxGeometry>
        </mxCell>
        <mxCell id="lou3Js6F1ql6NDHkVVvx-42" value="quantity" style="shape=partialRectangle;connectable=0;fillColor=none;top=0;left=0;bottom=0;right=0;align=left;spacingLeft=6;overflow=hidden;whiteSpace=wrap;html=1;" vertex="1" parent="lou3Js6F1ql6NDHkVVvx-40">
          <mxGeometry x="50" width="170" height="30" as="geometry">
            <mxRectangle width="170" height="30" as="alternateBounds" />
          </mxGeometry>
        </mxCell>
        <mxCell id="lou3Js6F1ql6NDHkVVvx-43" value="" style="shape=tableRow;horizontal=0;startSize=0;swimlaneHead=0;swimlaneBody=0;fillColor=none;collapsible=0;dropTarget=0;points=[[0,0.5],[1,0.5]];portConstraint=eastwest;top=0;left=0;right=0;bottom=0;" vertex="1" parent="lou3Js6F1ql6NDHkVVvx-33">
          <mxGeometry y="120" width="220" height="30" as="geometry" />
        </mxCell>
        <mxCell id="lou3Js6F1ql6NDHkVVvx-44" value="varchar" style="shape=partialRectangle;connectable=0;fillColor=none;top=0;left=0;bottom=0;right=0;editable=1;overflow=hidden;whiteSpace=wrap;html=1;" vertex="1" parent="lou3Js6F1ql6NDHkVVvx-43">
          <mxGeometry width="50" height="30" as="geometry">
            <mxRectangle width="50" height="30" as="alternateBounds" />
          </mxGeometry>
        </mxCell>
        <mxCell id="lou3Js6F1ql6NDHkVVvx-45" value="codigo" style="shape=partialRectangle;connectable=0;fillColor=none;top=0;left=0;bottom=0;right=0;align=left;spacingLeft=6;overflow=hidden;whiteSpace=wrap;html=1;" vertex="1" parent="lou3Js6F1ql6NDHkVVvx-43">
          <mxGeometry x="50" width="170" height="30" as="geometry">
            <mxRectangle width="170" height="30" as="alternateBounds" />
          </mxGeometry>
        </mxCell>
        <mxCell id="lou3Js6F1ql6NDHkVVvx-46" style="edgeStyle=orthogonalEdgeStyle;rounded=0;orthogonalLoop=1;jettySize=auto;html=1;entryX=0.545;entryY=-0.007;entryDx=0;entryDy=0;entryPerimeter=0;" edge="1" parent="1" source="lou3Js6F1ql6NDHkVVvx-20" target="lou3Js6F1ql6NDHkVVvx-33">
          <mxGeometry relative="1" as="geometry" />
        </mxCell>
        <mxCell id="lou3Js6F1ql6NDHkVVvx-47" value="Create&lt;br&gt;Update&lt;br&gt;Delete" style="rounded=1;whiteSpace=wrap;html=1;" vertex="1" parent="1">
          <mxGeometry x="120" y="480" width="120" height="60" as="geometry" />
        </mxCell>
        <mxCell id="lou3Js6F1ql6NDHkVVvx-48" style="edgeStyle=orthogonalEdgeStyle;rounded=0;orthogonalLoop=1;jettySize=auto;html=1;entryX=0.5;entryY=0;entryDx=0;entryDy=0;entryPerimeter=0;" edge="1" parent="1" source="lou3Js6F1ql6NDHkVVvx-13" target="lou3Js6F1ql6NDHkVVvx-19">
          <mxGeometry relative="1" as="geometry" />
        </mxCell>
      </root>
    </mxGraphModel>
  </diagram>
</mxfile>
